<?xml version="1.0" encoding="UTF-8"?>
<svg xmlns="http://www.w3.org/2000/svg" xmlns:xlink="http://www.w3.org/1999/xlink" width="1339.35pt" height="376.45pt" viewBox="0 0 1339.35 376.45" version="1.1">
<defs>
<clipPath id="clip1">
  <path d="M 1335 248 L 1339.351563 248 L 1339.351563 376.449219 L 1335 376.449219 Z M 1335 248 "/>
</clipPath>
</defs>
<g id="surface1">
<path style=" stroke:none;fill-rule:nonzero;fill:rgb(10.598755%,10.198975%,9.799194%);fill-opacity:1;" d="M 290.101563 147.308594 C 289.800781 147.289063 289.5 147.269531 289.203125 147.25 C 286.0625 153.371094 281.34375 158.191406 276.476563 162.867188 C 259.851563 178.84375 243.183594 194.773438 226.539063 210.726563 C 221.804688 215.269531 217.789063 220.398438 214.488281 226.058594 C 208.320313 236.632813 204.539063 247.855469 205.496094 260.296875 C 206.011719 266.953125 208.234375 273.003906 212.296875 278.335938 C 212.734375 278.90625 213.371094 279.328125 213.882813 279.78125 C 215.464844 275.160156 216.691406 270.679688 218.507813 266.449219 C 222.492188 257.171875 228.109375 248.832031 234.898438 241.421875 C 242.597656 233.015625 250.773438 225.039063 258.753906 216.890625 C 265.597656 209.902344 272.71875 203.171875 279.25 195.90625 C 289.300781 184.71875 293.003906 171.304688 291.558594 156.433594 C 291.261719 153.371094 290.597656 150.347656 290.101563 147.308594 M 173.941406 279.59375 C 173.941406 275.289063 173.644531 271.328125 174.003906 267.425781 C 174.859375 258.105469 178.378906 249.621094 182.9375 241.546875 C 190.210938 228.65625 199.738281 217.523438 210.238281 207.207031 C 232.25 185.582031 254.367188 164.0625 276.351563 142.410156 C 279.988281 138.828125 283.34375 134.921875 286.511719 130.910156 C 290.371094 126.023438 293.03125 120.460938 294.5 114.367188 C 297.152344 103.375 295.160156 92.890625 291.015625 82.648438 C 290.917969 82.414063 290.605469 82.269531 290.167969 81.890625 C 287.699219 87.996094 284.316406 93.300781 280.25 98.074219 C 274.0625 105.339844 267.910156 112.679688 261.167969 119.410156 C 241.558594 138.992188 221.632813 158.257813 201.894531 177.710938 C 193.105469 186.375 184.332031 195.058594 175.8125 203.984375 C 170 210.074219 165.265625 217.011719 161.988281 224.84375 C 158.789063 232.496094 157.351563 240.390625 158.496094 248.71875 C 160.089844 260.316406 165.578125 270.019531 172.808594 278.914063 C 173.003906 279.15625 173.367188 279.257813 173.941406 279.59375 M 133.648438 279.808594 C 133.859375 279.671875 134.070313 279.535156 134.28125 279.398438 C 134.148438 278.855469 134.027344 278.3125 133.882813 277.773438 C 132.367188 272.109375 131.582031 266.34375 131.84375 260.492188 C 132.308594 250.015625 134.925781 240.046875 139.367188 230.550781 C 146.023438 216.3125 155.707031 204.324219 166.828125 193.378906 C 189.574219 170.992188 212.347656 148.632813 234.96875 126.125 C 239.160156 121.957031 243.023438 117.367188 246.460938 112.558594 C 253.292969 102.984375 255.898438 92.144531 254.558594 80.449219 C 253.910156 74.789063 252.53125 69.292969 249.988281 63.808594 C 249.5625 64.429688 249.273438 64.773438 249.074219 65.160156 C 247.09375 68.964844 245.480469 73.023438 243.066406 76.527344 C 239.644531 81.503906 235.976563 86.402344 231.808594 90.753906 C 221.105469 101.941406 210.152344 112.898438 199.140625 123.789063 C 180.261719 142.464844 161.179688 160.9375 142.335938 179.648438 C 127.175781 194.703125 117.199219 212.492188 115.03125 234.089844 C 113.925781 245.140625 115.832031 255.679688 121.242188 265.464844 C 124.371094 271.121094 128.523438 275.910156 133.648438 279.808594 M 79.269531 223.191406 C 78.59375 220.226563 78.027344 217.765625 77.472656 215.296875 C 75.140625 204.945313 74.585938 194.566406 77.050781 184.15625 C 79.65625 173.152344 85.09375 163.582031 92.355469 155.070313 C 96.5 150.210938 101.050781 145.679688 105.589844 141.171875 C 130.542969 116.394531 155.558594 91.6875 180.523438 66.921875 C 185.351563 62.132813 189.429688 56.761719 192.117188 50.457031 C 194.292969 45.359375 195.507813 40.070313 194.800781 34.46875 C 193.367188 23.148438 186.6875 15.199219 178.085938 8.496094 C 177.949219 8.386719 177.65625 8.480469 177.433594 8.476563 C 177.34375 8.539063 177.179688 8.597656 177.175781 8.664063 C 177.125 9.242188 177.054688 9.820313 177.085938 10.394531 C 177.449219 17.179688 175.851563 23.5625 173.132813 29.710938 C 169.945313 36.917969 165.519531 43.328125 160.121094 49.027344 C 155.398438 54.011719 150.484375 58.816406 145.597656 63.644531 C 123.976563 84.996094 102.304688 106.300781 80.714844 127.683594 C 73.300781 135.027344 67.070313 143.269531 62.664063 152.792969 C 56.703125 165.683594 55.480469 178.953125 59.6875 192.578125 C 63.195313 203.929688 69.675781 213.523438 77.691406 222.152344 C 77.980469 222.460938 78.417969 222.636719 79.269531 223.191406 M 100.628906 229.382813 C 100.828125 226.972656 100.917969 224.550781 101.242188 222.15625 C 102.414063 213.46875 105.863281 205.605469 110.265625 198.128906 C 117.296875 186.191406 126.1875 175.726563 136.28125 166.324219 C 165.945313 138.683594 194.265625 109.683594 222.972656 81.078125 C 227.53125 76.535156 231.476563 71.507813 234.453125 65.765625 C 237.105469 60.648438 238.917969 55.289063 239.28125 49.488281 C 239.957031 38.691406 235.757813 29.75 228.804688 21.855469 C 228.308594 21.292969 227.628906 20.890625 226.804688 20.226563 C 226.484375 21.566406 226.15625 22.550781 226.027344 23.558594 C 225.21875 29.789063 223.097656 35.613281 219.648438 40.777344 C 215.648438 46.765625 211.523438 52.753906 206.757813 58.125 C 200.121094 65.605469 192.945313 72.625 185.808594 79.644531 C 163.226563 101.855469 140.5625 123.984375 117.910156 146.128906 C 109.285156 154.5625 101.546875 163.683594 96.074219 174.519531 C 90.75 185.050781 88.046875 196.085938 90.171875 207.949219 C 91.613281 216.003906 94.980469 223.164063 100.628906 229.382813 M 77.976563 289.484375 C 78.867188 290.65625 79.71875 291.855469 80.652344 292.992188 C 92.59375 307.585938 107.957031 317.074219 125.628906 323.101563 C 134.351563 326.082031 143.296875 328.171875 152.394531 329.636719 C 153.414063 329.800781 154.421875 330.078125 155.550781 330.332031 L 155.550781 354.769531 C 80.394531 347.449219 3.960938 281.210938 0.144531 185.394531 C -3.863281 84.707031 75.527344 2.847656 172.90625 0.0742188 C 272.125 -2.75 356.015625 76.492188 356.152344 177.84375 C 356.289063 277.050781 278.960938 346.65625 200.804688 354.804688 L 200.804688 330.265625 C 204.535156 329.550781 208.175781 328.890625 211.796875 328.140625 C 226.960938 325.007813 241.441406 320.089844 254.558594 311.648438 C 262.660156 306.433594 269.769531 300.117188 275.824219 292.621094 C 276.40625 291.894531 276.980469 291.160156 277.527344 290.40625 C 277.726563 290.132813 277.832031 289.792969 277.96875 289.507813 C 277.910156 289.359375 277.882813 289.242188 277.816406 289.144531 C 277.761719 289.058594 277.671875 288.949219 277.585938 288.9375 C 276.894531 288.859375 276.203125 288.753906 275.511719 288.753906 C 209.820313 288.742188 144.128906 288.746094 78.433594 288.746094 C 78.28125 288.992188 78.128906 289.238281 77.976563 289.484375 "/>
<path style=" stroke:none;fill-rule:nonzero;fill:rgb(10.598755%,10.198975%,9.799194%);fill-opacity:1;" d="M 790.652344 324.332031 L 790.652344 329.777344 L 738.636719 329.777344 C 738.542969 328.761719 738.40625 327.871094 738.390625 326.976563 C 738.375 326.179688 738.488281 325.378906 738.558594 324.375 C 740.660156 324.015625 742.703125 323.707031 744.734375 323.3125 C 750.476563 322.207031 752.722656 319.765625 753.101563 313.863281 C 753.359375 309.800781 753.433594 305.71875 753.417969 301.644531 C 753.328125 279.050781 753.1875 256.457031 753.0625 233.863281 C 753.054688 232.734375 753.0625 231.605469 753.0625 230.25 C 751.222656 230.511719 751.113281 231.8125 750.699219 232.761719 C 746.523438 242.367188 742.371094 251.984375 738.21875 261.601563 C 729.085938 282.761719 719.957031 303.921875 710.820313 325.078125 C 710.359375 326.144531 709.855469 327.195313 709.285156 328.433594 L 704.722656 328.433594 C 691.613281 296.414063 678.726563 264.289063 665.574219 232.273438 L 664.765625 232.410156 C 664.617188 233.398438 664.375 234.378906 664.332031 235.367188 C 663.375 256.539063 662.371094 277.707031 661.554688 298.886719 C 661.367188 303.757813 661.726563 308.660156 662.035156 313.539063 C 662.367188 318.773438 664.527344 321.339844 669.644531 322.621094 C 672.457031 323.328125 675.355469 323.679688 678.527344 324.246094 L 678.527344 329.726563 L 635.148438 329.726563 L 635.148438 324.246094 C 636.6875 323.9375 638.363281 323.625 640.03125 323.269531 C 646.390625 321.910156 649.457031 319.042969 650.3125 312.597656 C 651.675781 302.332031 652.847656 292.035156 653.746094 281.722656 C 655.011719 267.222656 656.003906 252.703125 657.003906 238.183594 C 657.28125 234.125 657.414063 230.027344 657.1875 225.972656 C 656.839844 219.804688 654.476563 217.21875 648.484375 215.878906 C 646.222656 215.371094 643.902344 215.101563 641.332031 214.679688 L 641.332031 209.410156 L 676.449219 209.410156 C 688.972656 237.511719 701.542969 265.722656 714.113281 293.929688 C 714.410156 293.9375 714.710938 293.945313 715.007813 293.957031 C 727.78125 265.835938 740.554688 237.714844 753.421875 209.398438 L 788.40625 209.398438 L 788.40625 214.621094 C 786.847656 214.871094 785.175781 215.179688 783.492188 215.402344 C 774.761719 216.570313 773 219.339844 772.976563 226.46875 C 772.949219 236.246094 773.140625 246.027344 773.359375 255.804688 C 773.710938 271.757813 774.132813 287.707031 774.582031 303.652344 C 774.675781 307.023438 774.902344 310.398438 775.261719 313.753906 C 775.910156 319.796875 778.183594 322.199219 784.089844 323.292969 C 786.136719 323.675781 788.207031 323.949219 790.652344 324.332031 "/>
<path style=" stroke:none;fill-rule:nonzero;fill:rgb(10.598755%,10.198975%,9.799194%);fill-opacity:1;" d="M 1023.761719 106.484375 C 1023.980469 111.6875 1024.519531 116.796875 1026.878906 121.441406 C 1028.070313 123.769531 1029.640625 126.109375 1031.601563 127.792969 C 1036.539063 132.046875 1043.449219 131.058594 1047.128906 125.679688 C 1048.480469 123.710938 1049.5 121.382813 1050.121094 119.066406 C 1052.03125 111.96875 1051.890625 104.800781 1050.019531 97.695313 C 1049.160156 94.40625 1047.769531 91.339844 1045.421875 88.800781 C 1039.980469 82.9375 1032.261719 83.460938 1027.988281 90.1875 C 1026.589844 92.398438 1025.601563 94.984375 1024.960938 97.539063 C 1024.238281 100.441406 1024.128906 103.496094 1023.761719 106.484375 M 1040.820313 165.355469 C 1036.480469 165.78125 1032.71875 165.808594 1029.109375 166.574219 C 1018.390625 168.839844 1013.851563 181.617188 1020.53125 190.242188 C 1022.640625 192.96875 1025.320313 195.03125 1028.460938 196.378906 C 1036.75 199.945313 1045.179688 200.007813 1053.628906 196.941406 C 1056.859375 195.765625 1059.589844 193.796875 1061.78125 191.121094 C 1069.328125 181.871094 1065.578125 169.941406 1054.039063 167.171875 C 1049.558594 166.09375 1044.859375 165.886719 1040.820313 165.355469 M 1018.898438 165.332031 C 1009.871094 161.679688 1003.410156 156.378906 1002.539063 146.105469 C 1009.191406 143.257813 1015.320313 139.8125 1020.378906 134.21875 C 1019.628906 133.722656 1019.128906 133.292969 1018.558594 133.039063 C 999.492188 124.675781 998.96875 99.480469 1012.488281 87.789063 C 1019.28125 81.917969 1027.269531 79.152344 1036.128906 78.617188 C 1042.78125 78.214844 1049.109375 79.558594 1055.109375 82.359375 C 1056.871094 83.179688 1058.601563 83.507813 1060.511719 83.3125 C 1066.53125 82.699219 1072.550781 82.121094 1078.578125 81.570313 C 1080.371094 81.40625 1082.179688 81.382813 1084.730469 81.261719 C 1083.710938 83.339844 1083.140625 84.820313 1082.300781 86.125 C 1081.230469 87.785156 1079.980469 89.320313 1078.761719 90.875 C 1077.601563 92.351563 1076.179688 92.953125 1074.179688 92.671875 C 1071.691406 92.316406 1069.148438 92.386719 1066.160156 92.253906 C 1066.699219 93.324219 1066.929688 93.949219 1067.289063 94.492188 C 1073.539063 103.941406 1072 120.542969 1060.308594 129.253906 C 1054.738281 133.410156 1048.429688 135.695313 1041.589844 136.269531 C 1037.800781 136.589844 1033.929688 136.28125 1030.109375 135.996094 C 1027.03125 135.765625 1025.828125 136.230469 1024.269531 139.125 C 1022.921875 141.605469 1023.050781 144.003906 1025.171875 145.78125 C 1026.621094 147.003906 1028.5 148.035156 1030.339844 148.414063 C 1033.050781 148.972656 1035.878906 148.996094 1038.660156 149.03125 C 1045.289063 149.113281 1051.929688 148.921875 1058.558594 149.152344 C 1061.308594 149.246094 1064.109375 149.867188 1066.761719 150.691406 C 1077.171875 153.933594 1082.210938 162.011719 1081.128906 173.648438 C 1080.441406 181.011719 1077.109375 187.21875 1072.101563 192.515625 C 1063.421875 201.671875 1052.589844 206.625 1040.230469 208.398438 C 1032.988281 209.4375 1025.820313 209.015625 1018.78125 206.984375 C 1013.789063 205.546875 1009.261719 203.222656 1005.5 199.558594 C 1002.871094 196.992188 1000.941406 193.988281 999.898438 190.4375 C 998.410156 185.390625 999.417969 180.851563 1003.289063 177.339844 C 1006.730469 174.222656 1010.550781 171.519531 1014.21875 168.671875 C 1015.578125 167.617188 1017.019531 166.667969 1018.898438 165.332031 "/>
<path style=" stroke:none;fill-rule:nonzero;fill:rgb(10.598755%,10.198975%,9.799194%);fill-opacity:1;" d="M 473.75 288.753906 L 473.75 266.046875 C 473.75 265.929688 473.738281 265.8125 473.753906 265.699219 C 474.035156 263.449219 473.113281 261.65625 471.738281 259.957031 C 465.527344 252.285156 455.1875 251.242188 447.566406 257.589844 C 443.097656 261.308594 440.546875 266.230469 439.070313 271.730469 C 437.058594 279.238281 436.546875 286.882813 437.730469 294.574219 C 438.796875 301.503906 441.285156 307.820313 446.398438 312.863281 C 453.316406 319.6875 462.121094 321 470.773438 316.628906 C 472.859375 315.570313 473.871094 314.320313 473.8125 311.804688 C 473.636719 304.125 473.75 296.4375 473.75 288.753906 M 473.511719 247.042969 C 473.613281 245.84375 473.742188 245.039063 473.738281 244.234375 C 473.699219 235.96875 473.722656 227.699219 473.554688 219.433594 C 473.4375 213.800781 471.808594 212.085938 466.226563 211.078125 C 464.523438 210.769531 462.8125 210.527344 460.882813 210.21875 L 460.882813 205.542969 C 471.8125 203.460938 482.527344 201.421875 493.679688 199.296875 C 493.75 200.546875 493.898438 201.976563 493.898438 203.410156 C 493.914063 237.300781 493.902344 271.191406 493.921875 305.082031 C 493.925781 307.640625 494.007813 310.207031 494.21875 312.757813 C 494.546875 316.746094 496.035156 318.292969 499.992188 319.007813 C 501.136719 319.214844 502.289063 319.375 503.441406 319.535156 C 504.589844 319.695313 505.738281 319.824219 507.148438 320 L 507.148438 324.796875 C 496.238281 327.078125 485.34375 329.351563 474.183594 331.683594 C 472.992188 328.660156 474.414063 325.09375 473.316406 321.515625 C 472.371094 321.980469 471.554688 322.308594 470.808594 322.761719 C 467.628906 324.695313 464.441406 326.628906 461.304688 328.640625 C 455.417969 332.417969 449.222656 332.878906 442.5625 330.988281 C 427.273438 326.648438 416.304688 313.246094 414.644531 297.355469 C 411.878906 270.890625 431.242188 251.484375 453.4375 247.09375 C 459.429688 245.90625 465.441406 245.566406 471.46875 246.882813 C 472.015625 247.003906 472.589844 246.976563 473.511719 247.042969 "/>
<path style=" stroke:none;fill-rule:nonzero;fill:rgb(10.598755%,10.198975%,9.799194%);fill-opacity:1;" d="M 890.683594 257.339844 L 890.683594 253.277344 C 900.753906 250.921875 910.671875 248.601563 921.035156 246.179688 L 921.035156 259.472656 C 922.414063 258.714844 923.210938 258.355469 923.925781 257.871094 C 927.976563 255.136719 931.957031 252.289063 936.066406 249.636719 C 939.335938 247.523438 942.941406 246.273438 946.890625 246.0625 C 957.867188 245.476563 966.34375 251.128906 970.019531 261.523438 C 971.636719 266.09375 972.085938 270.824219 972.089844 275.621094 C 972.09375 287.042969 972.070313 298.460938 972.105469 309.878906 C 972.113281 312.4375 972.230469 315.003906 972.445313 317.554688 C 972.722656 320.820313 974.46875 322.9375 977.734375 323.660156 C 979.425781 324.035156 981.125 324.363281 982.980469 324.746094 L 982.980469 329.765625 L 942.101563 329.765625 L 942.101563 324.824219 C 943.238281 324.546875 944.347656 324.273438 945.460938 324.015625 C 949.507813 323.074219 951.054688 321.519531 951.515625 317.425781 C 951.8125 314.769531 951.871094 312.078125 951.871094 309.402344 C 951.855469 297.867188 951.859375 286.335938 951.664063 274.804688 C 951.625 272.410156 951.039063 269.9375 950.253906 267.65625 C 947.964844 261.046875 942.394531 258.449219 935.929688 259.035156 C 930.761719 259.503906 926.402344 262.007813 922.464844 265.199219 C 921.714844 265.808594 921.289063 267.160156 921.222656 268.199219 C 921.050781 270.871094 921.164063 273.558594 921.164063 276.234375 C 921.160156 287.886719 921.152344 299.539063 921.171875 311.191406 C 921.175781 313.167969 921.21875 315.152344 921.382813 317.125 C 921.746094 321.453125 923.234375 323.097656 927.429688 324.027344 C 928.550781 324.277344 929.664063 324.550781 930.898438 324.84375 L 930.898438 329.390625 C 928.226563 330.117188 891.886719 330.226563 888.265625 329.515625 C 888.199219 329.003906 888.089844 328.445313 888.070313 327.886719 C 888.035156 326.96875 888.058594 326.046875 888.058594 324.820313 C 889.777344 324.5 891.339844 324.191406 892.90625 323.917969 C 898.777344 322.894531 900.589844 321.039063 900.691406 315.125 C 900.851563 305.808594 900.777344 296.484375 900.789063 287.164063 C 900.800781 281.222656 900.808594 275.28125 900.78125 269.339844 C 900.773438 267.710938 900.710938 266.070313 900.519531 264.457031 C 900.1875 261.65625 898.667969 259.722656 895.949219 258.851563 C 894.292969 258.320313 892.609375 257.886719 890.683594 257.339844 "/>
<path style=" stroke:none;fill-rule:nonzero;fill:rgb(10.598755%,10.198975%,9.799194%);fill-opacity:1;" d="M 412.164063 39.421875 L 514.226563 39.421875 C 514.824219 49.691406 515.414063 59.765625 516.03125 70.296875 C 514.199219 70.453125 512.535156 70.59375 510.632813 70.753906 C 510.292969 69.792969 509.984375 68.960938 509.699219 68.121094 C 508.394531 64.269531 507.25 60.351563 505.753906 56.574219 C 503.738281 51.503906 499.886719 48.363281 494.433594 47.914063 C 487.726563 47.363281 480.980469 47.28125 473.929688 46.980469 C 473.761719 48.464844 473.554688 49.457031 473.554688 50.449219 C 473.535156 80.160156 473.535156 109.871094 473.558594 139.578125 C 473.558594 141.558594 473.734375 143.535156 473.902344 145.507813 C 474.433594 151.75 476.59375 154.285156 482.648438 155.515625 C 485.601563 156.117188 488.613281 156.433594 491.808594 156.910156 L 491.808594 161.785156 C 489.480469 162.597656 439.167969 162.800781 435.039063 161.953125 L 435.039063 156.90625 C 436.625 156.671875 438.195313 156.386719 439.773438 156.214844 C 449.359375 155.191406 452.058594 152.308594 452.410156 142.59375 C 452.496094 140.269531 452.503906 137.9375 452.503906 135.605469 C 452.511719 107.761719 452.507813 79.914063 452.507813 52.070313 L 452.507813 47.988281 C 451.992188 47.695313 451.695313 47.378906 451.410156 47.386719 C 444.558594 47.621094 437.699219 47.757813 430.859375 48.191406 C 426.125 48.488281 422.808594 51.28125 420.929688 55.46875 C 419.273438 59.167969 418.089844 63.082031 416.734375 66.917969 C 416.316406 68.105469 416.03125 69.339844 415.652344 70.671875 L 410.367188 70.671875 C 409.753906 68.40625 411.203125 42.800781 412.164063 39.421875 "/>
<path style=" stroke:none;fill-rule:nonzero;fill:rgb(10.598755%,10.198975%,9.799194%);fill-opacity:1;" d="M 713.511719 162.179688 L 713.511719 157.335938 C 714.761719 157.074219 715.882813 156.867188 716.992188 156.601563 C 720.992188 155.65625 722.550781 154.003906 723.015625 149.960938 C 723.28125 147.648438 723.449219 145.3125 723.457031 142.988281 C 723.503906 132.386719 723.546875 121.78125 723.433594 111.179688 C 723.402344 108.292969 723.054688 105.359375 722.445313 102.535156 C 720.667969 94.277344 714.457031 90.214844 705.328125 91.929688 C 701.011719 92.738281 697.308594 95.023438 693.933594 97.769531 C 693.308594 98.28125 692.921875 99.257813 692.730469 100.089844 C 692.523438 100.976563 692.671875 101.945313 692.671875 102.875 C 692.671875 116.273438 692.667969 129.675781 692.671875 143.074219 C 692.675781 144.820313 692.667969 146.570313 692.746094 148.3125 C 693.011719 154.167969 694.503906 155.828125 700.316406 156.871094 C 700.878906 156.972656 701.4375 157.097656 702.242188 157.261719 L 702.242188 162.195313 L 659.773438 162.195313 L 659.773438 157.3125 C 661.820313 156.933594 663.871094 156.617188 665.886719 156.160156 C 670.097656 155.210938 671.632813 153.519531 672.078125 149.300781 C 672.3125 147.105469 672.476563 144.886719 672.484375 142.679688 C 672.519531 129.863281 672.519531 117.046875 672.480469 104.230469 C 672.472656 102.019531 672.222656 99.816406 672.078125 97.605469 C 671.855469 94.136719 669.960938 92.054688 666.679688 91.144531 C 665.332031 90.777344 663.972656 90.449219 662.320313 90.027344 L 662.320313 85.796875 C 672.273438 83.476563 682.195313 81.160156 692.523438 78.753906 L 692.523438 92.25 C 694.121094 91.234375 695.054688 90.664063 695.960938 90.054688 C 700.015625 87.324219 704 84.480469 708.136719 81.875 C 712.851563 78.902344 718.070313 77.96875 723.566406 78.835938 C 733.910156 80.472656 739.789063 86.976563 742.257813 96.722656 C 743.191406 100.40625 743.53125 104.316406 743.585938 108.128906 C 743.761719 120.828125 743.691406 133.527344 743.714844 146.230469 C 743.714844 146.34375 743.714844 146.460938 743.714844 146.578125 C 743.871094 154.140625 745.238281 155.722656 752.609375 156.875 C 753.179688 156.960938 753.742188 157.085938 754.585938 157.242188 L 754.585938 162.179688 "/>
<path style=" stroke:none;fill-rule:nonzero;fill:rgb(10.598755%,10.198975%,9.799194%);fill-opacity:1;" d="M 824.21875 124.984375 C 824.023438 121.6875 823.9375 118.074219 823.566406 114.488281 C 822.960938 108.683594 821.789063 102.992188 819.378906 97.628906 C 817.933594 94.410156 816.050781 91.488281 813.382813 89.136719 C 808.105469 84.476563 798.6875 82.597656 792.226563 91.117188 C 789.71875 94.421875 788.199219 98.175781 787.179688 102.148438 C 785.171875 109.929688 785.242188 117.847656 785.929688 125.746094 C 786.542969 132.84375 788.078125 139.773438 791.355469 146.199219 C 793.285156 149.980469 795.683594 153.382813 799.3125 155.738281 C 806.222656 160.226563 814.777344 158.386719 819.035156 151.351563 C 820.222656 149.386719 821.074219 147.171875 821.789063 144.976563 C 823.867188 138.585938 823.863281 131.914063 824.21875 124.984375 M 802.847656 164.855469 C 799.984375 164.351563 795.253906 164.050781 790.875 162.65625 C 774.917969 157.582031 765.609375 146.347656 763.074219 129.984375 C 761.046875 116.910156 763.855469 104.6875 772.425781 94.230469 C 787.820313 75.445313 816.769531 73.15625 834.125 89.4375 C 843.835938 98.542969 847.671875 110.097656 847.046875 123.210938 C 846.722656 130.015625 845.320313 136.628906 842.054688 142.683594 C 834.035156 157.546875 821.160156 164.246094 802.847656 164.855469 "/>
<path style=" stroke:none;fill-rule:nonzero;fill:rgb(10.598755%,10.198975%,9.799194%);fill-opacity:1;" d="M 858.640625 292.855469 C 858.640625 290.296875 858.773438 287.726563 858.617188 285.175781 C 858.199219 278.40625 857.042969 271.773438 854.351563 265.492188 C 852.917969 262.144531 851.011719 259.089844 848.246094 256.660156 C 842.820313 251.890625 833.585938 249.839844 826.878906 258.726563 C 824.53125 261.839844 823.058594 265.371094 822.089844 269.121094 C 819.746094 278.171875 819.828125 287.316406 821.105469 296.496094 C 821.960938 302.640625 823.484375 308.59375 826.378906 314.128906 C 828.070313 317.359375 830.160156 320.285156 833.105469 322.496094 C 840.429688 328.003906 849.894531 326.027344 854.300781 318.007813 C 855.246094 316.292969 855.96875 314.417969 856.550781 312.542969 C 858.539063 306.128906 858.867188 299.511719 858.640625 292.855469 M 881.882813 288.234375 C 881.851563 294.503906 880.949219 300.617188 878.53125 306.367188 C 871.886719 322.167969 859.683594 330.476563 842.835938 332.042969 C 835.1875 332.753906 827.71875 331.488281 820.675781 328.308594 C 803.40625 320.507813 795.878906 302.765625 797.460938 286.585938 C 797.796875 283.128906 798.398438 279.636719 799.386719 276.3125 C 806.886719 251.148438 836.515625 238.414063 859.828125 250.53125 C 874.945313 258.390625 881.515625 271.601563 881.882813 288.234375 "/>
<path style=" stroke:none;fill-rule:nonzero;fill:rgb(10.598755%,10.198975%,9.799194%);fill-opacity:1;" d="M 1278.859375 126.066406 C 1278.878906 116.855469 1278.089844 108.542969 1275.300781 100.527344 C 1273.859375 96.414063 1271.839844 92.636719 1268.648438 89.59375 C 1263 84.210938 1252.960938 82.539063 1246.550781 91.6875 C 1243.96875 95.378906 1242.460938 99.507813 1241.539063 103.863281 C 1239.679688 112.636719 1239.910156 121.445313 1241.261719 130.253906 C 1242.148438 136.152344 1243.730469 141.855469 1246.589844 147.140625 C 1248.441406 150.558594 1250.761719 153.597656 1254.070313 155.746094 C 1260.96875 160.226563 1269.558594 158.382813 1273.800781 151.339844 C 1275.101563 149.179688 1276.03125 146.726563 1276.730469 144.292969 C 1278.539063 138.097656 1278.898438 131.703125 1278.859375 126.066406 M 1259.308594 164.691406 C 1248.050781 164.605469 1237.921875 161.425781 1229.710938 153.441406 C 1220.039063 144.039063 1216.441406 132.328125 1217.398438 119.113281 C 1218.828125 99.457031 1231.730469 84.179688 1250.960938 79.734375 C 1277.160156 73.679688 1300.960938 91.714844 1301.800781 118.75 C 1302.050781 126.90625 1300.730469 134.769531 1297.101563 142.136719 C 1290.101563 156.300781 1275.820313 164.800781 1259.308594 164.691406 "/>
<path style=" stroke:none;fill-rule:nonzero;fill:rgb(10.598755%,10.198975%,9.799194%);fill-opacity:1;" d="M 928.425781 117.324219 C 928.425781 119.1875 928.308594 121.058594 928.445313 122.910156 C 929.046875 130.964844 930.453125 138.839844 934.101563 146.152344 C 935.941406 149.84375 938.289063 153.144531 941.75 155.515625 C 948.792969 160.339844 957.699219 158.472656 961.960938 151.097656 C 963.277344 148.8125 964.269531 146.242188 964.90625 143.679688 C 967.550781 133.023438 967.527344 122.203125 965.867188 111.4375 C 965.152344 106.773438 963.613281 102.199219 962.105469 97.699219 C 960.988281 94.363281 958.851563 91.535156 956.195313 89.171875 C 950.882813 84.449219 941.355469 82.535156 935.101563 91.128906 C 933.152344 93.804688 931.699219 96.96875 930.605469 100.113281 C 928.679688 105.648438 928.152344 111.464844 928.425781 117.324219 M 949.882813 164.710938 C 935.625 164.609375 925.15625 161.121094 916.789063 152.527344 C 909.851563 145.410156 906.203125 136.746094 905.441406 126.878906 C 905.007813 121.269531 905.492188 115.714844 906.941406 110.257813 C 914.777344 80.738281 951.71875 68.53125 975.074219 87.804688 C 984.085938 95.242188 988.796875 105.054688 989.722656 116.574219 C 990.511719 126.40625 988.925781 135.917969 983.804688 144.503906 C 975.613281 158.226563 963.078125 164.335938 949.882813 164.710938 "/>
<g clip-path="url(#clip1)" clip-rule="nonzero">
<path style=" stroke:none;fill-rule:nonzero;fill:rgb(10.598755%,10.198975%,9.799194%);fill-opacity:1;" d="M 1391.898438 253.195313 L 1391.898438 248.863281 C 1394.519531 248.128906 1419.941406 247.945313 1424.53125 248.628906 L 1424.53125 253.238281 C 1423.351563 253.59375 1422.058594 254.039063 1420.738281 254.371094 C 1417.140625 255.265625 1414.421875 257.328125 1412.640625 260.53125 C 1411.171875 263.171875 1409.691406 265.835938 1408.519531 268.613281 C 1396.039063 298.203125 1383.140625 327.625 1372.078125 357.796875 C 1370.429688 362.269531 1369.089844 366.855469 1367.578125 371.378906 C 1366.191406 375.582031 1364.371094 376.847656 1360.050781 376.34375 C 1355.578125 375.828125 1352.21875 373.445313 1350.101563 369.503906 C 1348.308594 366.171875 1349.019531 362.839844 1351.890625 360.40625 C 1352.949219 359.511719 1354.148438 358.761719 1355.359375 358.070313 C 1364.730469 352.71875 1369.691406 344.0625 1373.210938 334.328125 C 1374.269531 331.40625 1373.519531 328.566406 1372.488281 325.804688 C 1366.738281 310.3125 1361.011719 294.816406 1355.191406 279.351563 C 1353.269531 274.230469 1351.078125 269.21875 1349.109375 264.113281 C 1346.878906 258.335938 1343.121094 254.496094 1336.730469 253.707031 C 1336.179688 253.640625 1335.679688 253.28125 1335.058594 253.023438 L 1335.058594 248.90625 C 1337.628906 248.128906 1372.25 247.878906 1377.511719 248.59375 L 1377.511719 253.171875 C 1376.359375 253.550781 1375.058594 253.964844 1373.769531 254.40625 C 1369.609375 255.816406 1368.71875 257.335938 1370.089844 261.484375 C 1372.71875 269.4375 1375.511719 277.335938 1378.25 285.253906 C 1380.378906 291.414063 1382.53125 297.5625 1384.679688 303.714844 C 1384.859375 304.238281 1385.121094 304.738281 1385.550781 305.699219 C 1386.148438 304.734375 1386.648438 304.164063 1386.890625 303.492188 C 1391.558594 290.335938 1396.210938 277.171875 1400.839844 264.003906 C 1401.070313 263.347656 1401.210938 262.652344 1401.359375 261.972656 C 1402.171875 258.273438 1401.140625 256.246094 1397.558594 254.882813 C 1395.839844 254.226563 1394.019531 253.816406 1391.898438 253.195313 "/>
</g>
<path style=" stroke:none;fill-rule:nonzero;fill:rgb(10.598755%,10.198975%,9.799194%);fill-opacity:1;" d="M 535.941406 276.582031 C 545.316406 276.28125 554.011719 276.058594 562.699219 275.6875 C 564.816406 275.601563 565.675781 274.492188 565.726563 272.179688 C 565.839844 267.179688 564.738281 262.464844 561.832031 258.316406 C 557.484375 252.113281 550.226563 251.160156 544.613281 256.222656 C 538.835938 261.433594 536.945313 268.417969 535.941406 276.582031 M 582.386719 309 C 583.1875 310.15625 584.03125 311.382813 584.824219 312.53125 C 575.007813 327.605469 555.628906 338.53125 535.058594 328.074219 C 524.433594 322.671875 518.703125 313.484375 516.300781 302.109375 C 511.996094 281.742188 521.265625 261.183594 539.289063 250.867188 C 547.070313 246.414063 555.339844 244.683594 564.148438 247.074219 C 575.851563 250.253906 584.933594 261.285156 585.753906 273.121094 C 586.195313 279.464844 584.566406 281.367188 578.265625 281.78125 C 565.605469 282.613281 552.945313 283.417969 540.289063 284.238281 C 538.675781 284.34375 537.0625 284.472656 535.058594 284.617188 C 535.1875 286.542969 535.265625 288.238281 535.421875 289.929688 C 535.8125 294.136719 536.914063 298.167969 538.710938 301.988281 C 544.734375 314.839844 557.855469 320.285156 571.089844 315.136719 C 574.9375 313.640625 578.414063 311.191406 582.386719 309 "/>
<path style=" stroke:none;fill-rule:nonzero;fill:rgb(10.598755%,10.198975%,9.799194%);fill-opacity:1;" d="M 524.378906 108.667969 C 525.882813 108.746094 527.121094 108.882813 528.359375 108.863281 C 535.101563 108.757813 541.847656 108.617188 548.589844 108.476563 C 549.398438 108.460938 550.222656 108.433594 551.019531 108.292969 C 553.351563 107.878906 554.0625 107.203125 554.117188 104.828125 C 554.246094 99.457031 553.144531 94.332031 549.613281 90.15625 C 548.179688 88.460938 546.128906 86.980469 544.058594 86.191406 C 539.371094 84.40625 535.363281 86.285156 532.09375 89.671875 C 527.09375 94.84375 525.316406 101.378906 524.378906 108.667969 M 523.449219 117.234375 C 523.875 128.15625 526.320313 137.910156 535.21875 144.722656 C 542.945313 150.640625 551.625 150.910156 560.382813 147.359375 C 563.890625 145.9375 567.042969 143.640625 570.699219 141.542969 C 571.453125 142.574219 572.386719 143.859375 573.28125 145.09375 C 561.832031 162.324219 541.636719 170.65625 522.253906 159.984375 C 513.292969 155.050781 508.039063 147.113281 505.386719 137.367188 C 499.308594 115.046875 510.132813 91.464844 530.863281 81.808594 C 547.414063 74.101563 565.472656 80.882813 572.148438 97.316406 C 573.574219 100.816406 574.261719 104.445313 574.105469 108.234375 C 573.949219 112.058594 572.515625 113.699219 568.625 114.078125 C 563.179688 114.609375 557.722656 115.074219 552.261719 115.425781 C 543.429688 115.992188 534.589844 116.4375 525.75 116.941406 C 525.183594 116.976563 524.621094 117.082031 523.449219 117.234375 "/>
<path style=" stroke:none;fill-rule:nonzero;fill:rgb(10.598755%,10.198975%,9.799194%);fill-opacity:1;" d="M 1064.308594 275.742188 C 1064.828125 276.113281 1064.929688 276.238281 1065.019531 276.238281 C 1073.621094 276.078125 1082.230469 275.964844 1090.828125 275.703125 C 1092.980469 275.640625 1093.980469 274.558594 1094 272.300781 C 1094.039063 266.570313 1092.789063 261.175781 1088.828125 256.785156 C 1084.890625 252.414063 1079.160156 251.738281 1074.328125 255.121094 C 1072.75 256.234375 1071.289063 257.683594 1070.128906 259.242188 C 1066.488281 264.132813 1064.921875 269.785156 1064.308594 275.742188 M 1063.25 284.613281 C 1063.679688 294.757813 1065.789063 303.785156 1073.210938 310.648438 C 1080.25 317.15625 1088.609375 318.296875 1097.640625 315.773438 C 1102.320313 314.46875 1106.261719 311.828125 1110.261719 308.601563 C 1111.28125 310.007813 1112.199219 311.277344 1113.289063 312.777344 C 1106.5 321.964844 1098.28125 328.871094 1087.058594 331.40625 C 1069.488281 335.375 1051.988281 325.097656 1046.019531 307.542969 C 1038.628906 285.792969 1047.96875 261.59375 1068.101563 250.558594 C 1077.269531 245.539063 1086.878906 244.078125 1096.578125 248.648438 C 1106.941406 253.53125 1112.828125 261.890625 1113.960938 273.414063 C 1114.53125 279.234375 1112.789063 281.34375 1106.921875 281.742188 C 1094.488281 282.59375 1082.070313 283.371094 1069.640625 284.183594 C 1067.679688 284.308594 1065.710938 284.449219 1063.25 284.613281 "/>
<path style=" stroke:none;fill-rule:nonzero;fill:rgb(10.598755%,10.198975%,9.799194%);fill-opacity:1;" d="M 1283.089844 275.742188 C 1283.621094 276.113281 1283.71875 276.238281 1283.820313 276.238281 C 1292.421875 276.078125 1301.03125 275.964844 1309.628906 275.703125 C 1311.769531 275.640625 1312.808594 274.542969 1312.808594 272.296875 C 1312.800781 266.453125 1311.558594 260.933594 1307.390625 256.519531 C 1303.589844 252.496094 1298.03125 251.835938 1293.410156 254.929688 C 1291.800781 256.007813 1290.320313 257.433594 1289.128906 258.972656 C 1285.328125 263.910156 1283.769531 269.6875 1283.089844 275.742188 M 1282.050781 284.574219 C 1282.46875 294.519531 1284.488281 303.355469 1291.519531 310.1875 C 1298.609375 317.070313 1307.148438 318.367188 1316.460938 315.769531 C 1321.140625 314.464844 1325.058594 311.792969 1329.078125 308.613281 C 1330.089844 310.019531 1331.011719 311.300781 1331.871094 312.5 C 1314.648438 338.515625 1285.730469 336.527344 1271.578125 319.644531 C 1265.078125 311.902344 1262.398438 302.71875 1262.429688 292.773438 C 1262.480469 274.359375 1270.609375 260.375 1286.328125 250.910156 C 1294 246.289063 1302.351563 244.691406 1311.160156 247.0625 C 1323.339844 250.335938 1332.488281 261.945313 1332.898438 274.46875 C 1333.058594 279.234375 1331.328125 281.308594 1326.410156 281.679688 C 1315.390625 282.511719 1304.351563 283.214844 1293.320313 283.945313 C 1289.738281 284.183594 1286.140625 284.347656 1282.050781 284.574219 "/>
<path style=" stroke:none;fill-rule:nonzero;fill:rgb(10.598755%,10.198975%,9.799194%);fill-opacity:1;" d="M 898.167969 157.324219 L 898.167969 161.78125 C 895.710938 162.578125 857.179688 162.789063 852.742188 162.015625 C 852.671875 161.296875 852.546875 160.515625 852.527344 159.734375 C 852.511719 159.046875 852.613281 158.355469 852.683594 157.386719 C 854.246094 157.058594 855.804688 156.730469 857.359375 156.398438 C 863.152344 155.148438 864.707031 153.363281 865.058594 147.378906 C 865.203125 144.941406 865.253906 142.492188 865.253906 140.046875 C 865.269531 112.90625 865.273438 85.769531 865.25 58.628906 C 865.246094 55.71875 865.183594 52.800781 864.953125 49.902344 C 864.640625 45.984375 863.117188 44.324219 859.273438 43.449219 C 857.480469 43.042969 855.652344 42.765625 853.636719 42.390625 L 853.636719 38.152344 C 864.121094 36.039063 874.539063 33.941406 885.359375 31.761719 C 885.421875 33.164063 885.527344 34.507813 885.527344 35.851563 C 885.535156 71.144531 885.53125 106.4375 885.542969 141.730469 C 885.542969 144.058594 885.550781 146.394531 885.730469 148.710938 C 886.101563 153.488281 887.722656 155.316406 892.386719 156.332031 C 894.1875 156.722656 896.023438 156.960938 898.167969 157.324219 "/>
<path style=" stroke:none;fill-rule:nonzero;fill:rgb(10.598755%,10.198975%,9.799194%);fill-opacity:1;" d="M 1017.03125 248.257813 C 1019.058594 248.257813 1020.78125 248.257813 1022.5 248.257813 C 1026.460938 248.261719 1030.421875 248.320313 1034.378906 248.246094 C 1036.160156 248.210938 1036.890625 249.136719 1037.210938 250.667969 C 1037.929688 254.019531 1036.089844 256.382813 1032.640625 256.425781 C 1028.679688 256.472656 1024.71875 256.4375 1020.761719 256.4375 L 1017.011719 256.4375 C 1016.929688 258.027344 1016.808594 259.273438 1016.808594 260.515625 C 1016.800781 274.378906 1016.738281 288.238281 1016.851563 302.097656 C 1016.871094 305.21875 1017.148438 308.40625 1017.878906 311.429688 C 1019.441406 317.898438 1023.308594 320.511719 1029.929688 319.753906 C 1032.429688 319.46875 1034.878906 318.640625 1037.789063 317.957031 C 1038.238281 319.507813 1038.710938 321.117188 1039.21875 322.878906 C 1038.429688 323.378906 1037.789063 323.863281 1037.089844 324.210938 C 1033.230469 326.117188 1029.371094 328.015625 1025.480469 329.875 C 1021.390625 331.824219 1017.179688 332.695313 1012.609375 331.804688 C 1003.449219 330.011719 998.273438 324.699219 997.105469 315.40625 C 996.730469 312.40625 996.558594 309.367188 996.546875 306.347656 C 996.492188 291.203125 996.519531 276.0625 996.519531 260.917969 L 996.519531 256.4375 C 993.425781 256.4375 990.777344 256.441406 988.132813 256.433594 C 987.199219 256.429688 986.246094 256.511719 985.34375 256.332031 C 983.984375 256.058594 983.460938 254.847656 984.277344 253.710938 C 985.429688 252.101563 986.648438 250.507813 988.078125 249.160156 C 988.726563 248.546875 989.941406 248.375 990.921875 248.300781 C 992.628906 248.164063 994.351563 248.261719 996.519531 248.261719 C 996.519531 244.476563 996.667969 241.125 996.472656 237.796875 C 996.332031 235.425781 997.191406 233.945313 999.085938 232.570313 C 1003.421875 229.429688 1007.601563 226.066406 1011.839844 222.792969 C 1012.390625 222.367188 1012.921875 221.886719 1013.53125 221.554688 C 1015.199219 220.644531 1016.5 221.300781 1016.75 223.175781 C 1016.851563 223.980469 1016.800781 224.804688 1016.800781 225.621094 C 1016.800781 231.796875 1016.789063 237.96875 1016.808594 244.140625 C 1016.808594 245.386719 1016.941406 246.628906 1017.03125 248.257813 "/>
<path style=" stroke:none;fill-rule:nonzero;fill:rgb(10.598755%,10.198975%,9.799194%);fill-opacity:1;" d="M 1240.648438 324.855469 L 1240.648438 329.765625 L 1193.28125 329.765625 L 1193.28125 324.75 C 1195.238281 324.40625 1197.070313 324.128906 1198.878906 323.746094 C 1202.308594 323.019531 1204.5 321.050781 1204.871094 317.417969 C 1205.070313 315.457031 1205.339844 313.484375 1205.339844 311.515625 C 1205.390625 297.664063 1205.371094 283.8125 1205.359375 269.960938 C 1205.359375 269.261719 1205.328125 268.5625 1205.300781 267.867188 C 1205.058594 261.191406 1203.730469 259.566406 1197.269531 258.023438 C 1196.601563 257.863281 1195.941406 257.660156 1195.039063 257.410156 L 1195.039063 253.382813 C 1205.171875 251.03125 1215.101563 248.726563 1225.449219 246.320313 L 1225.449219 264.972656 C 1225.71875 265.050781 1226 265.128906 1226.269531 265.210938 C 1226.941406 264.191406 1227.621094 263.183594 1228.269531 262.160156 C 1231.230469 257.535156 1234.441406 253.113281 1238.769531 249.644531 C 1241.769531 247.242188 1245.050781 245.714844 1249.050781 246.121094 C 1254.808594 246.703125 1259.019531 250.78125 1259.300781 256.164063 C 1259.621094 262.140625 1255.5 267.960938 1250.039063 268.859375 C 1248.828125 269.058594 1247.371094 268.425781 1246.191406 267.855469 C 1244.839844 267.203125 1243.75 266.046875 1242.410156 265.367188 C 1238.738281 263.503906 1235.101563 263.691406 1232.039063 266.535156 C 1228.121094 270.175781 1225.320313 274.363281 1225.441406 280.164063 C 1225.640625 290.402344 1225.480469 300.648438 1225.511719 310.894531 C 1225.511719 312.871094 1225.589844 314.851563 1225.78125 316.816406 C 1226.140625 320.507813 1228.109375 322.816406 1231.839844 323.445313 C 1234.691406 323.925781 1237.550781 324.359375 1240.648438 324.855469 "/>
<path style=" stroke:none;fill-rule:nonzero;fill:rgb(10.598755%,10.198975%,9.799194%);fill-opacity:1;" d="M 1167.449219 324.839844 L 1167.449219 329.71875 L 1120.261719 329.71875 C 1120.171875 329.003906 1120.050781 328.445313 1120.03125 327.882813 C 1119.988281 326.964844 1120.019531 326.042969 1120.019531 324.800781 C 1121.730469 324.492188 1123.300781 324.230469 1124.859375 323.929688 C 1129.789063 322.988281 1131.601563 320.96875 1132 315.921875 C 1132.109375 314.53125 1132.121094 313.132813 1132.128906 311.734375 C 1132.128906 297.753906 1132.070313 283.773438 1132.148438 269.792969 C 1132.199219 260.628906 1130.511719 259.261719 1122.96875 257.738281 C 1122.640625 257.671875 1122.339844 257.457031 1121.820313 257.21875 L 1121.820313 253.417969 C 1131.929688 251.066406 1141.960938 248.734375 1152.28125 246.335938 C 1152.78125 252.417969 1152.148438 258.664063 1153.300781 265.019531 C 1153.96875 263.980469 1154.648438 262.945313 1155.320313 261.90625 C 1158.179688 257.488281 1161.261719 253.257813 1165.371094 249.890625 C 1168.421875 247.378906 1171.78125 245.703125 1175.921875 246.117188 C 1181.621094 246.691406 1185.96875 250.851563 1186.28125 256.136719 C 1186.628906 262.003906 1182.421875 267.925781 1176.96875 268.855469 C 1175.769531 269.0625 1174.308594 268.429688 1173.109375 267.882813 C 1171.96875 267.363281 1171.058594 266.363281 1169.960938 265.71875 C 1165.859375 263.332031 1161.800781 263.636719 1158.421875 266.960938 C 1154.78125 270.546875 1152.28125 274.660156 1152.398438 280.175781 C 1152.609375 290.304688 1152.449219 300.445313 1152.46875 310.582031 C 1152.46875 312.558594 1152.53125 314.542969 1152.71875 316.511719 C 1153.109375 320.761719 1154.550781 322.476563 1158.800781 323.429688 C 1161.511719 324.039063 1164.300781 324.339844 1167.449219 324.839844 "/>
<path style=" stroke:none;fill-rule:nonzero;fill:rgb(10.598755%,10.198975%,9.799194%);fill-opacity:1;" d="M 651.648438 141.1875 C 652.722656 142.539063 653.640625 143.699219 654.652344 144.976563 C 654.078125 145.855469 653.699219 146.71875 653.078125 147.347656 C 649.980469 150.488281 647.015625 153.804688 643.644531 156.625 C 624.074219 172.984375 595.800781 162.679688 587.242188 141.753906 C 580.605469 125.519531 584.238281 107.324219 597.21875 94.496094 C 606.007813 85.804688 616.597656 80.492188 628.875 78.820313 C 635.113281 77.96875 641.203125 78.84375 646.851563 81.792969 C 653.484375 85.253906 654.214844 92.296875 648.519531 97.144531 C 646.15625 99.152344 644.445313 99.234375 641.964844 97.355469 C 639.832031 95.738281 637.820313 93.953125 635.625 92.433594 C 632.445313 90.230469 628.992188 88.628906 625.09375 88.046875 C 619.292969 87.175781 614.398438 88.941406 610.777344 93.414063 C 608.84375 95.808594 607.1875 98.648438 606.222656 101.558594 C 603.128906 110.867188 602.949219 120.378906 606.148438 129.683594 C 609.875 140.535156 617.261719 147.617188 628.890625 149.339844 C 635.085938 150.257813 640.90625 148.617188 646.148438 145.144531 C 647.890625 143.992188 649.542969 142.707031 651.648438 141.1875 "/>
<path style=" stroke:none;fill-rule:nonzero;fill:rgb(10.598755%,10.198975%,9.799194%);fill-opacity:1;" d="M 1208.429688 141.199219 C 1209.488281 142.566406 1210.46875 143.816406 1211.550781 145.195313 C 1205.28125 153.460938 1198.039063 160.425781 1188.050781 163.277344 C 1175.238281 166.933594 1163.53125 163.824219 1153.589844 155.101563 C 1141.308594 144.328125 1137.421875 126.03125 1143.589844 110.230469 C 1150.691406 92.078125 1171.628906 78.121094 1191.089844 78.613281 C 1195.691406 78.730469 1200.089844 79.800781 1204.121094 82.070313 C 1210.769531 85.816406 1210.828125 93.890625 1204.289063 97.90625 C 1202.621094 98.929688 1200.988281 99.015625 1199.398438 97.847656 C 1198.371094 97.09375 1197.421875 96.230469 1196.429688 95.421875 C 1192.800781 92.453125 1188.960938 89.863281 1184.378906 88.570313 C 1177.121094 86.519531 1170.589844 88.734375 1166.28125 94.914063 C 1165.03125 96.710938 1163.941406 98.710938 1163.238281 100.773438 C 1159.789063 111.046875 1159.570313 121.429688 1163.601563 131.53125 C 1167.601563 141.53125 1174.949219 147.949219 1185.890625 149.375 C 1192.089844 150.1875 1197.898438 148.535156 1203.109375 145.011719 C 1204.828125 143.847656 1206.488281 142.59375 1208.429688 141.199219 "/>
<path style=" stroke:none;fill-rule:nonzero;fill:rgb(10.598755%,10.198975%,9.799194%);fill-opacity:1;" d="M 1090.238281 90.085938 L 1090.238281 85.742188 C 1100.441406 83.507813 1110.589844 81.28125 1121.210938 78.957031 L 1121.210938 82.558594 C 1121.210938 102.816406 1121.199219 123.078125 1121.21875 143.339844 C 1121.21875 145.316406 1121.210938 147.308594 1121.429688 149.269531 C 1121.898438 153.429688 1123.550781 155.238281 1127.621094 156.210938 C 1129.410156 156.636719 1131.238281 156.90625 1133.28125 157.292969 L 1133.28125 162.230469 L 1088.910156 162.230469 L 1088.910156 157.3125 C 1090.578125 157.019531 1092.28125 156.78125 1093.960938 156.417969 C 1098.640625 155.398438 1100.160156 153.660156 1100.601563 148.796875 C 1100.78125 146.828125 1100.890625 144.847656 1100.890625 142.871094 C 1100.921875 129.828125 1100.921875 116.789063 1100.890625 103.746094 C 1100.890625 101.65625 1100.78125 99.550781 1100.550781 97.476563 C 1100.140625 93.777344 1098.660156 92.121094 1095.050781 91.164063 C 1093.5 90.75 1091.910156 90.457031 1090.238281 90.085938 "/>
<path style=" stroke:none;fill-rule:nonzero;fill:rgb(10.598755%,10.198975%,9.799194%);fill-opacity:1;" d="M 1121.410156 53.378906 C 1121.359375 59.714844 1116.230469 64.828125 1109.859375 64.886719 C 1103.421875 64.941406 1098.148438 59.636719 1098.199219 53.136719 C 1098.238281 46.5625 1103.371094 41.492188 1109.960938 41.515625 C 1116.511719 41.542969 1121.46875 46.679688 1121.410156 53.378906 "/>
<path style=" stroke:none;fill-rule:nonzero;fill:rgb(10.598755%,10.198975%,9.799194%);fill-opacity:1;" d="M 946.597656 71.007813 C 944.664063 70.152344 943.105469 69.460938 941.308594 68.664063 C 942.421875 65.453125 943.449219 62.511719 944.457031 59.5625 C 946.566406 53.394531 948.734375 47.25 950.722656 41.046875 C 951.339844 39.125 952.300781 38.097656 954.328125 37.914063 C 958.613281 37.527344 962.882813 36.988281 967.167969 36.609375 C 968.257813 36.511719 969.804688 36.175781 970.152344 37.625 C 970.339844 38.429688 969.734375 39.601563 969.171875 40.378906 C 964.730469 46.507813 960.21875 52.585938 955.722656 58.671875 C 952.753906 62.691406 949.777344 66.703125 946.597656 71.007813 "/>
</g>
</svg>
